<svg xmlns="http://www.w3.org/2000/svg" xmlns:xlink="http://www.w3.org/1999/xlink" width="1168" height="513" viewBox="0 0 1168 513" overflow="hidden" class="farm">
	<style>
		svg.farm {
			font-family: Calibri,Calibri_MSFontService,sans-serif;
			font-weight: 400;
			font-size: 24px;
		}
	</style>
	<defs>
		<clipPath id="clip0">
			<path d="M81 144 1249 144 1249 657 81 657Z" fill-rule="evenodd" clip-rule="evenodd"/>
		</clipPath>
	</defs>
	<g clip-path="url(#clip0)" transform="translate(-81 -144)">
		<text transform="translate(482.053 196)">Water Job<tspan x="16.4267" y="29">Queue</tspan></text>
		<text transform="translate(476.859 394)">Sowing Job<tspan x="21.62" y="29">Queue</tspan></text>
		<text transform="translate(474.619 592)">Harvest Job<tspan x="23.86" y="29">Queue</tspan></text>
		<text transform="translate(196.49 210)">Field #1</text>
		<text transform="translate(196.49 408)">Field #2</text>
		<text transform="translate(196.49 606)">Field #3</text>
		<text transform="translate(788.251 210)">Irrigator</text>
		<text transform="translate(797.371 408)">Sower</text>
		<text transform="translate(780.405 606)">Harvester</text>
		<text transform="translate(1089.24 606)">Market</text>
		
		<rect xmlns="http://www.w3.org/2000/svg" name="f1" type="atomic" x="158" y="162" width="153" height="81" stroke="#000000" stroke-width="2" stroke-miterlimit="8" fill="none"/>
		<rect xmlns="http://www.w3.org/2000/svg" name="f2" type="atomic" x="158" y="360" width="153" height="81" stroke="#000000" stroke-width="2" stroke-miterlimit="8" fill="none"/>
		<rect xmlns="http://www.w3.org/2000/svg" name="f3" type="atomic" x="158" y="558" width="153" height="81" stroke="#000000" stroke-width="2" stroke-miterlimit="8" fill="none"/>
		<rect xmlns="http://www.w3.org/2000/svg" name="que_wm" type="atomic" x="455" y="162" width="153" height="81" stroke="#000000" stroke-width="2" stroke-miterlimit="8" fill="none"/>
		<rect xmlns="http://www.w3.org/2000/svg" name="que_sm" type="atomic" x="455" y="360" width="153" height="81" stroke="#000000" stroke-width="2" stroke-miterlimit="8" fill="none"/>
		<rect xmlns="http://www.w3.org/2000/svg" name="que_hm" type="atomic" x="455" y="558" width="153" height="81" stroke="#000000" stroke-width="2" stroke-miterlimit="8" fill="none"/>
		<rect xmlns="http://www.w3.org/2000/svg" name="irrigator" type="atomic" x="751" y="162" width="153" height="81" stroke="#000000" stroke-width="2" stroke-miterlimit="8" fill="none"/>
		<rect xmlns="http://www.w3.org/2000/svg" name="sower" type="atomic" x="751" y="360" width="153" height="81" stroke="#000000" stroke-width="2" stroke-miterlimit="8" fill="none"/>
		<rect xmlns="http://www.w3.org/2000/svg" name="harvester" type="atomic" x="751" y="558" width="153" height="81" stroke="#000000" stroke-width="2" stroke-miterlimit="8" fill="none"/>
		<rect xmlns="http://www.w3.org/2000/svg" name="market" type="atomic" x="1048" y="558" width="153" height="81" stroke="#000000" stroke-width="2" stroke-miterlimit="8" fill="none"/>
		<rect xmlns="http://www.w3.org/2000/svg" name="wm" type="coupled" x="438" y="145" width="481" height="115" stroke="#000000" stroke-width="2" stroke-miterlimit="8" fill="none"/>
		<rect xmlns="http://www.w3.org/2000/svg" name="sm" type="coupled" x="438" y="343" width="481" height="115" stroke="#000000" stroke-width="2" stroke-miterlimit="8" fill="none"/>
		<rect xmlns="http://www.w3.org/2000/svg" name="hm" type="atomic" x="438" y="541" width="481" height="115" stroke="#000000" stroke-width="2" stroke-miterlimit="8" fill="none"/>
		
		<path d="M311 201 447.591 201 447.591 203 311 203ZM446.258 198 454.258 202 446.258 206Z"/>
		<path d="M311 400 447.591 400 447.591 402 311 402ZM446.258 397 454.258 401 446.258 405Z"/>
		<path d="M608 400 744.591 400 744.591 402 608 402ZM743.258 397 751.258 401 743.258 405Z"/>
		<path d="M608 201 744.591 201 744.591 203 608 203ZM743.258 198 751.258 202 743.258 206Z"/>
		<path d="M311 598 447.591 598 447.591 600 311 600ZM446.258 595 454.258 599 446.258 603Z"/>
		<path d="M608 598 744.591 598 744.591 600 608 600ZM743.258 595 751.258 599 743.258 603Z"/>
		<path d="M919.001 597 1041.19 597.176 1041.19 599.176 918.999 599ZM1039.86 594.174 1047.86 598.186 1039.85 602.174Z"/>
		<path d="M1201 598 1233.07 598 1233.07 600 1201 600ZM1231.74 595 1239.74 599 1231.74 603Z"/>
		<path d="M311 201 383.629 201 383.629 400.171 382.629 399.171 447.591 399.171 447.591 401.171 381.629 401.171 381.629 202 382.629 203 311 203ZM446.258 396.171 454.258 400.171 446.258 404.171Z"/>
		<path d="M311 201 383.629 201 383.629 598.343 382.629 597.343 447.591 597.343 447.591 599.343 381.629 599.343 381.629 202 382.629 203 311 203ZM446.258 594.343 454.258 598.343 446.258 602.343Z"/>
		<path d="M0-1 72.629-1 72.629 198.171 71.629 197.171 136.591 197.171 136.591 199.171 70.629 199.171 70.629 0 71.629 1 0 1ZM135.258 194.171 143.258 198.171 135.258 202.171Z" transform="matrix(1 0 0 -1 311 400.171)"/>
		<path d="M311 400 383.629 400 383.629 599.171 382.629 598.171 447.591 598.171 447.591 600.171 381.629 600.171 381.629 401 382.629 402 311 402ZM446.258 595.171 454.258 599.171 446.258 603.171Z"/>
		<path d="M0-1 72.6289-1 72.6289 198.171 71.6289 197.171 136.591 197.171 136.591 199.171 70.6289 199.171 70.6289 0 71.6289 1 0 1ZM135.258 194.171 143.258 198.171 135.258 202.171Z" transform="matrix(1 0 0 -1 311 599.171)"/>
		<path d="M0-1 72.6288-1 72.6288 396.343 71.6288 395.343 136.591 395.343 136.591 397.343 70.6288 397.343 70.6288 0 71.6288 1 0 1ZM135.258 392.343 143.258 396.343 135.258 400.343Z" transform="matrix(1 0 0 -1 311 598.343)"/>
		<path d="M81 201 150.962 201 150.962 203 81 203ZM149.628 198 157.628 202 149.628 206Z"/>
		<path d="M81 399 150.962 399 150.962 401 81 401ZM149.628 396 157.628 400 149.628 404Z"/>
		<path d="M81.0024 597 150.964 597.17 150.959 599.17 80.9976 599ZM149.638 594.167 157.628 598.186 149.619 602.167Z"/>
		<path d="M7.32852e-07-1 136.591-0.9999 136.591 1.0001-7.32852e-07 1ZM135.258-3.9999 143.258 0.000104987 135.258 4.0001Z" transform="matrix(-1 -8.74228e-08 -8.74228e-08 1 751.258 202)"/>
		<path d="M7.32852e-07-1 136.591-0.9999 136.591 1.0001-7.32852e-07 1ZM135.258-3.9999 143.258 0.000104987 135.258 4.0001Z" transform="matrix(-1 -8.74228e-08 -8.74228e-08 1 751.258 401)"/>
		<path d="M7.32852e-07-1 136.591-0.9999 136.591 1.0001-7.32852e-07 1ZM135.258-3.9999 143.258 0.000104987 135.258 4.0001Z" transform="matrix(-1 -8.74228e-08 -8.74228e-08 1 751.258 599)"/>
		<path d="M7.32852e-07-1 136.591-0.9999 136.591 1.0001-7.32852e-07 1ZM135.258-3.9999 143.258 0.000104987 135.258 4.0001Z" transform="matrix(-1 -8.74228e-08 -8.74228e-08 1 454.258 202)"/>
		<path d="M7.32852e-07-1 136.591-0.9999 136.591 1.0001-7.32852e-07 1ZM135.258-3.9999 143.258 0.000104987 135.258 4.0001Z" transform="matrix(-1 -8.74228e-08 -8.74228e-08 1 454.258 401)"/>
		<path d="M7.32852e-07-1 136.591-0.9999 136.591 1.0001-7.32852e-07 1ZM135.258-3.9999 143.258 0.000104987 135.258 4.0001Z" transform="matrix(-1 -8.74228e-08 -8.74228e-08 1 454.258 599)"/>
		<path d="M0-1 72.629-1 72.629 198.171 71.629 197.171 136.591 197.171 136.591 199.171 70.629 199.171 70.629 0 71.629 1 0 1ZM135.258 194.171 143.258 198.171 135.258 202.171Z" transform="matrix(-1 -8.74228e-08 -8.74228e-08 1 454.258 202)"/>
		<path d="M0-1 72.6288-1 72.6288 396.343 71.6288 395.343 136.591 395.343 136.591 397.343 70.6288 397.343 70.6288 0 71.6288 1 0 1ZM135.258 392.343 143.258 396.343 135.258 400.343Z" transform="matrix(-1 -8.74228e-08 -8.74228e-08 1 454.258 202)"/>
		<path d="M454.258 401.171 381.629 401.171 381.629 202 382.629 203 317.667 203 317.667 201 383.629 201 383.629 400.171 382.629 399.171 454.258 399.171ZM319 206 311 202 319 198Z"/>
		<path d="M0-1 72.6289-1 72.6289 198.171 71.6289 197.171 136.591 197.171 136.591 199.171 70.6289 199.171 70.6289 0 71.6289 1 0 1ZM135.258 194.171 143.258 198.171 135.258 202.171Z" transform="matrix(-1 -8.74228e-08 -8.74228e-08 1 454.258 400)"/>
		<path d="M454.258 600.171 381.629 600.171 381.629 401 382.629 402 317.667 402 317.667 400 383.629 400 383.629 599.171 382.629 598.171 454.258 598.171ZM319 405 311 401 319 397Z"/>
		<path d="M454.258 599.343 381.629 599.343 381.629 202 382.629 203 317.667 203 317.667 201 383.629 201 383.629 598.343 382.629 597.343 454.258 597.343ZM319 206 311 202 319 198Z"/>
	</g>
</svg>